<?xml version="1.0" encoding="UTF-8" standalone="no"?>
<!-- Created with Inkscape (http://www.inkscape.org/) -->

<svg
   xmlns:dc="http://purl.org/dc/elements/1.1/"
   xmlns:cc="http://creativecommons.org/ns#"
   xmlns:rdf="http://www.w3.org/1999/02/22-rdf-syntax-ns#"
   xmlns:svg="http://www.w3.org/2000/svg"
   xmlns="http://www.w3.org/2000/svg"
   xmlns:sodipodi="http://sodipodi.sourceforge.net/DTD/sodipodi-0.dtd"
   xmlns:inkscape="http://www.inkscape.org/namespaces/inkscape"
   version="1.1"
   width="512"
   height="512"
   viewBox="0 0 512 512"
   id="svg2"
   inkscape:version="0.91 r13725"
   sodipodi:docname="eyefiserver.svg">
  <metadata
     id="metadata13">
    <rdf:RDF>
      <cc:Work
         rdf:about="">
        <dc:format>image/svg+xml</dc:format>
        <dc:type
           rdf:resource="http://purl.org/dc/dcmitype/StillImage" />
        <dc:title></dc:title>
      </cc:Work>
    </rdf:RDF>
  </metadata>
  <defs
     id="defs11" />
  <sodipodi:namedview
     pagecolor="#ffffff"
     bordercolor="#666666"
     borderopacity="1"
     objecttolerance="10"
     gridtolerance="10"
     guidetolerance="10"
     inkscape:pageopacity="0"
     inkscape:pageshadow="2"
     inkscape:window-width="1920"
     inkscape:window-height="985"
     id="namedview9"
     showgrid="false"
     inkscape:zoom="0.92187499"
     inkscape:cx="165.67468"
     inkscape:cy="145.914"
     inkscape:window-x="-4"
     inkscape:window-y="-4"
     inkscape:window-maximized="1"
     inkscape:current-layer="svg2" />
  <g
     id="icomoon-ignore">
    <line
       stroke-width="1"
       x1=""
       y1=""
       x2=""
       y2=""
       stroke="#449FDB"
       opacity=""
       id="line5" />
  </g>
  <g
     id="layer1"
     inkscape:label="Ebene 1"
     transform="matrix(1.1109871,0,0,1.1109871,1.5516089,-2.9717598)">
    <g
       transform="matrix(0,0.50385915,-0.59986344,0,407.06728,255.11668)"
       id="g3389" />
    <g
       transform="matrix(0,0.50385915,-0.59986344,0,407.06728,255.11668)"
       id="g3391" />
    <g
       transform="matrix(0,0.50385915,-0.59986344,0,407.06728,255.11668)"
       id="g3393" />
    <g
       transform="matrix(0,0.50385915,-0.59986344,0,407.06728,255.11668)"
       id="g3395" />
    <g
       transform="matrix(0,0.50385915,-0.59986344,0,407.06728,255.11668)"
       id="g3397" />
    <g
       transform="matrix(0,0.50385915,-0.59986344,0,407.06728,255.11668)"
       id="g3399" />
    <g
       transform="matrix(0,0.50385915,-0.59986344,0,407.06728,255.11668)"
       id="g3401" />
    <g
       transform="matrix(0,0.50385915,-0.59986344,0,407.06728,255.11668)"
       id="g3403" />
    <g
       transform="matrix(0,0.50385915,-0.59986344,0,407.06728,255.11668)"
       id="g3405" />
    <g
       transform="matrix(0,0.50385915,-0.59986344,0,407.06728,255.11668)"
       id="g3407" />
    <g
       transform="matrix(0,0.50385915,-0.59986344,0,407.06728,255.11668)"
       id="g3409" />
    <g
       transform="matrix(0,0.50385915,-0.59986344,0,407.06728,255.11668)"
       id="g3411" />
    <g
       transform="matrix(0,0.50385915,-0.59986344,0,407.06728,255.11668)"
       id="g3413" />
    <g
       transform="matrix(0,0.50385915,-0.59986344,0,407.06728,255.11668)"
       id="g3415" />
    <g
       transform="matrix(0,0.50385915,-0.59986344,0,407.06728,255.11668)"
       id="g3417" />
    <g
       transform="matrix(1.7131068,0,0,1.6798601,-239.479,-300.39805)"
       inkscape:export-ydpi="72"
       inkscape:export-xdpi="72"
       id="g5881">
      <path
         id="path3387"
         d="m 407.06728,441.45337 0,-131.25531 c 0,-1.17802 -0.61366,-2.30717 -1.67662,-3.07908 l -36.4333,-26.52617 c -0.8824,-0.64444 -2.01255,-0.99261 -3.18348,-0.99261 l -209.69546,0 c -8.03577,0 -14.57428,5.48602 -14.57428,12.23723 l 0,149.61644 c 0,6.75574 6.53851,12.24176 14.57428,12.24176 l 236.41638,0 c 8.03457,-0.004 14.57248,-5.48954 14.57248,-12.24226 z m -61.57298,-111.81441 0,-13.72663 42.98861,0 0,13.72663 -42.98861,0 z m -0.51289,-22.11488 0,-13.71454 12.79149,0 0,13.71454 -12.79149,0 z m 0.51289,44.05593 0,-13.71454 42.98861,0 0,13.71454 -42.98861,0 z m 0,21.72187 0,-13.71404 42.98861,0 0,13.71404 -42.98861,0 z m 0,21.94609 0,-13.71101 42.98861,0 0,13.71101 -42.98861,0 z m 0,21.84481 0,-13.72663 42.98861,0 0,13.72663 -42.98861,0 z m 0,21.05628 0,-13.71152 42.98861,0 0,13.71152 -42.98861,0 z"
         inkscape:connector-curvature="0"
         inkscape:export-xdpi="72.599998"
         inkscape:export-ydpi="72.599998" />
      <path
         sodipodi:type="spiral"
         style="fill:none;fill-opacity:1;fill-rule:evenodd;stroke:#000000;stroke-width:18.6039753;stroke-linecap:round;stroke-linejoin:round;stroke-miterlimit:4;stroke-dasharray:none;stroke-opacity:1"
         id="path3575"
         sodipodi:cx="357.14282"
         sodipodi:cy="342.36218"
         sodipodi:expansion="1"
         sodipodi:revolution="2.8480299"
         sodipodi:radius="125.49702"
         sodipodi:argument="-18.584225"
         sodipodi:t0="0.90697443"
         d="m 276.8196,261.71628 c 43.52226,-49.03912 120.65178,-50.62841 168.7743,-7.45127 2.91964,2.61961 5.7155,5.3771 8.3759,8.2596"
         transform="matrix(0.56193632,0,0,0.52709805,65.066648,127.03721)" />
      <path
         sodipodi:type="spiral"
         style="fill:none;fill-opacity:1;fill-rule:evenodd;stroke:#000000;stroke-width:16.95065308;stroke-linecap:round;stroke-linejoin:round;stroke-miterlimit:4;stroke-dasharray:none;stroke-opacity:1"
         id="path3575-4"
         sodipodi:cx="357.14282"
         sodipodi:cy="342.36218"
         sodipodi:expansion="1"
         sodipodi:revolution="2.8480299"
         sodipodi:radius="125.49702"
         sodipodi:argument="-18.584225"
         sodipodi:t0="0.90697443"
         d="m 276.8196,261.71628 c 43.52226,-49.03912 120.65178,-50.62841 168.7743,-7.45127 2.91964,2.61961 5.7155,5.3771 8.3759,8.2596"
         transform="matrix(1.0652918,0,0,1.0427567,-118.53862,-13.841925)" />
      <path
         sodipodi:type="spiral"
         style="fill:none;fill-opacity:1;fill-rule:evenodd;stroke:#000000;stroke-width:16.95065308;stroke-linecap:round;stroke-linejoin:round;stroke-miterlimit:4;stroke-dasharray:none;stroke-opacity:1"
         id="path3575-4-1"
         sodipodi:cx="357.14282"
         sodipodi:cy="342.36218"
         sodipodi:expansion="1"
         sodipodi:revolution="2.8480299"
         sodipodi:radius="125.49702"
         sodipodi:argument="-18.584225"
         sodipodi:t0="0.90697443"
         d="m 276.8196,261.71628 c 43.52226,-49.03912 120.65178,-50.62841 168.7743,-7.45127 2.91964,2.61961 5.7155,5.3771 8.3759,8.2596"
         transform="matrix(1.2865354,0,0,1.0909825,-200.09431,-54.130264)" />
    </g>
  </g>
</svg>
